<?xml version="1.0" encoding="iso-8859-1"?>
<!-- Generator: Adobe Illustrator 19.0.0, SVG Export Plug-In . SVG Version: 6.00 Build 0)  -->
<svg version="1.1" id="Capa_1" xmlns="http://www.w3.org/2000/svg" xmlns:xlink="http://www.w3.org/1999/xlink" x="0px" y="0px"
	 viewBox="0 0 512 512" style="enable-background:new 0 0 512 512;" xml:space="preserve">
<g>
	<g>
		<path d="M140.193,347.19v99.021h231.613V347.19H140.193z M206.818,416.212h-36.625V377.19h36.625V416.212z M275.181,416.212
			h-38.363v-0.001V377.19h38.363V416.212z M341.807,416.211h-36.625V377.19h36.625V416.211z"/>
	</g>
</g>
<g>
	<g>
		<path d="M190.823,202.754c-29.035,0-52.657,23.622-52.657,52.658s23.622,52.658,52.657,52.658
			c29.036,0,52.658-23.622,52.658-52.658S219.859,202.754,190.823,202.754z M190.823,278.07c-12.493,0-22.657-10.164-22.657-22.658
			c0-12.493,10.164-22.658,22.657-22.658c12.494,0,22.658,10.164,22.658,22.658S203.317,278.07,190.823,278.07z"/>
	</g>
</g>
<g>
	<g>
		<path d="M321.177,202.754c-29.036,0-52.658,23.622-52.658,52.658s23.622,52.658,52.658,52.658
			c29.035,0,52.657-23.622,52.657-52.658S350.212,202.754,321.177,202.754z M321.177,278.07c-12.494,0-22.658-10.164-22.658-22.658
			c0-12.493,10.164-22.658,22.658-22.658c12.493,0,22.657,10.164,22.657,22.658S333.67,278.07,321.177,278.07z"/>
	</g>
</g>
<g>
	<g>
		<path d="M444.805,210.001v-68.657H271V94.272c19.328-6.327,33.333-24.523,33.333-45.938C304.333,21.682,282.651,0,256,0
			s-48.334,21.682-48.334,48.334c0,21.415,14.005,39.611,33.334,45.938v47.072H67.196v68.657H0v141.697h67.196V512h377.609V351.698
			H512V210.001H444.805z M67.196,321.698H30v-81.697h37.196V321.698z M237.666,48.334C237.666,38.225,245.891,30,256,30
			c10.108,0,18.333,8.225,18.333,18.334S266.108,66.667,256,66.667C245.891,66.667,237.666,58.443,237.666,48.334z M414.805,482
			H97.196V171.344h317.609V482z M482,321.698h-37.195v-81.697H482V321.698z"/>
	</g>
</g>
<g>
</g>
<g>
</g>
<g>
</g>
<g>
</g>
<g>
</g>
<g>
</g>
<g>
</g>
<g>
</g>
<g>
</g>
<g>
</g>
<g>
</g>
<g>
</g>
<g>
</g>
<g>
</g>
<g>
</g>
</svg>
